<?xml version="1.0" standalone="no"?>
<svg viewBox="0 0 200 200" xmlns="http://www.w3.org/2000/svg">
  <path fill="#0F62FE" d="M44.3,-76.7C55.5,-70.2,61.5,-54.6,69.3,-40.3C77.1,-26,86.6,-13,86.5,-0.1C86.3,12.9,76.6,25.7,68.8,40C61,54.3,55.2,69.9,44.1,78C32.9,86,16.5,86.5,0.6,85.4C-15.2,84.3,-30.4,81.6,-40.5,73C-50.6,64.3,-55.7,49.7,-60.5,36.5C-65.4,23.4,-70,11.7,-73.3,-1.9C-76.5,-15.4,-78.3,-30.9,-73.2,-43.5C-68,-56.1,-55.8,-65.8,-42.5,-71.1C-29.1,-76.4,-14.6,-77.1,1,-78.8C16.5,-80.5,33,-83.2,44.3,-76.7Z" transform="translate(100 100)" />
</svg>
